<svg width="118" height="102" viewBox="0 0 118 102" fill="none" xmlns="http://www.w3.org/2000/svg">
<g clip-path="url(#clip0_384_99)">
<path d="M28.9309 40.8462L6 51L28.9309 61.1538M28.9309 40.8462L59.5 54.3846L90.0691 40.8462M28.9309 40.8462L6 30.6923L59.5 7L113 30.6923L90.0691 40.8462M28.9309 61.1538L6 71.3077L59.5 95L113 71.3077L90.0691 61.1538M28.9309 61.1538L59.5 74.6923L90.0691 61.1538M90.0691 40.8462L113 51L90.0691 61.1538" stroke="white" stroke-width="5.5" stroke-linecap="round" stroke-linejoin="round"/>
<path d="M54.6765 43.2435L50.3002 40.4646L47.946 41.7695L45.5148 40.2256L47.8689 38.9207L43.2495 35.9873L40.803 37.3435L38.3717 35.7996L40.8182 34.4435L36.4419 31.6645L39.4654 29.9885L43.8417 32.7675L47.673 30.6438L43.2967 27.8648L46.3202 26.1888L50.6965 28.9678L53.0969 27.6373L55.5282 29.1812L53.1278 30.5117L57.7473 33.445L60.2399 32.0633L62.6712 33.6072L60.1786 34.9889L64.5549 37.7679L61.5314 39.4438L57.1551 36.6649L53.3237 38.7886L57.7001 41.5676L54.6765 43.2435ZM50.8766 37.4222L55.031 35.1194L50.1202 32.0102L45.9658 34.313L50.8766 37.4222ZM73.5454 32.7844L70.4114 31.389L74.912 28.8943L61.219 22.7978L59.0809 26.3444L55.3683 24.6915L59.2046 18.3482L78.4664 26.9241L82.0438 24.9411L85.1778 26.3364L73.5454 32.7844Z" fill="white"/>
</g>
<defs>
<clipPath id="clip0_384_99">
<rect width="118" height="102" fill="white"/>
</clipPath>
</defs>
</svg>
