<svg width="430" height="102" viewBox="0 0 430 102" fill="none" xmlns="http://www.w3.org/2000/svg">
<g clip-path="url(#clip0_384_93)">
<rect width="430" height="102" fill="white"/>
<path d="M28.9309 40.8462L6 51L28.9309 61.1538M28.9309 40.8462L59.5 54.3846L90.0691 40.8462M28.9309 40.8462L6 30.6923L59.5 7L113 30.6923L90.0691 40.8462M28.9309 61.1538L6 71.3077L59.5 95L113 71.3077L90.0691 61.1538M28.9309 61.1538L59.5 74.6923L90.0691 61.1538M90.0691 40.8462L113 51L90.0691 61.1538" stroke="black" stroke-width="5.5" stroke-linecap="round" stroke-linejoin="round"/>
<path d="M54.6765 43.2435L50.3002 40.4646L47.946 41.7695L45.5148 40.2256L47.8689 38.9207L43.2495 35.9873L40.803 37.3435L38.3717 35.7996L40.8182 34.4435L36.4419 31.6645L39.4654 29.9885L43.8417 32.7675L47.673 30.6438L43.2967 27.8648L46.3202 26.1888L50.6965 28.9678L53.0969 27.6373L55.5282 29.1812L53.1278 30.5117L57.7473 33.445L60.2399 32.0633L62.6712 33.6072L60.1786 34.9889L64.5549 37.7679L61.5314 39.4438L57.1551 36.6649L53.3237 38.7886L57.7001 41.5676L54.6765 43.2435ZM50.8766 37.4222L55.031 35.1194L50.1202 32.0102L45.9658 34.313L50.8766 37.4222ZM73.5454 32.7844L70.4114 31.389L74.912 28.8943L61.219 22.7978L59.0809 26.3444L55.3683 24.6915L59.2046 18.3482L78.4664 26.9241L82.0438 24.9411L85.1778 26.3364L73.5454 32.7844Z" fill="black"/>
<path d="M151.467 67V37H161.567C164.033 37 166.256 37.4111 168.233 38.2333C170.211 39.0333 171.9 40.1333 173.3 41.5333C174.722 42.9111 175.8 44.5111 176.533 46.3333C177.289 48.1333 177.667 50.0222 177.667 52C177.667 53.9778 177.289 55.8778 176.533 57.7C175.8 59.5 174.722 61.1 173.3 62.5C171.9 63.8778 170.211 64.9778 168.233 65.8C166.256 66.6 164.033 67 161.567 67H151.467ZM156.733 62.1H161.067C162.911 62.1 164.511 61.8222 165.867 61.2667C167.222 60.7111 168.356 59.9667 169.267 59.0333C170.178 58.0778 170.856 57 171.3 55.8C171.744 54.5778 171.967 53.3111 171.967 52C171.967 50.6889 171.744 49.4333 171.3 48.2333C170.856 47.0111 170.178 45.9222 169.267 44.9667C168.356 44.0111 167.222 43.2667 165.867 42.7333C164.511 42.1778 162.911 41.9 161.067 41.9H156.733V62.1ZM181.967 67V47H186.667V50.5C187.378 49.3444 188.267 48.4444 189.333 47.8C190.422 47.1333 191.711 46.8 193.2 46.8L194.367 51.5333C193.944 51.4 193.467 51.3333 192.933 51.3333C191.2 51.3333 189.811 51.8889 188.767 53C187.722 54.1111 187.2 55.6889 187.2 57.7333V67H181.967ZM205.411 67.4667C203.589 67.4667 201.923 67 200.411 66.0667C198.9 65.1111 197.689 63.8444 196.778 62.2667C195.889 60.6667 195.445 58.9111 195.445 57C195.445 55.0889 195.889 53.3444 196.778 51.7667C197.689 50.1667 198.9 48.9 200.411 47.9667C201.923 47.0111 203.589 46.5333 205.411 46.5333C206.723 46.5333 207.934 46.7667 209.045 47.2333C210.156 47.7 211.1 48.3556 211.878 49.2V47H216.445V67H211.878V64.8C211.1 65.6222 210.156 66.2778 209.045 66.7667C207.934 67.2333 206.723 67.4667 205.411 67.4667ZM206.045 62.8333C207.111 62.8333 208.067 62.5667 208.911 62.0333C209.778 61.5 210.467 60.8 210.978 59.9333C211.489 59.0444 211.745 58.0667 211.745 57C211.745 55.9333 211.489 54.9667 210.978 54.1C210.467 53.2111 209.778 52.5 208.911 51.9667C208.067 51.4333 207.123 51.1667 206.078 51.1667C205.011 51.1667 204.045 51.4333 203.178 51.9667C202.334 52.5 201.656 53.2111 201.145 54.1C200.634 54.9667 200.378 55.9333 200.378 57C200.378 58.0667 200.634 59.0444 201.145 59.9333C201.656 60.8 202.334 61.5 203.178 62.0333C204.045 62.5667 205 62.8333 206.045 62.8333ZM223.722 67V51.2H219.789V47H223.822V41.7333C223.822 39.4 224.5 37.6333 225.855 36.4333C227.211 35.2111 228.877 34.6 230.855 34.6C231.589 34.6 232.3 34.6889 232.989 34.8667C233.7 35.0222 234.333 35.2778 234.889 35.6333L233.822 40.0333C233.089 39.1667 232.233 38.7333 231.255 38.7333C230.677 38.7333 230.133 38.9444 229.622 39.3667C229.111 39.7667 228.855 40.5333 228.855 41.6667V47H233.055V51.2H228.955V67H223.722ZM238.722 67V51.2H234.789V47H238.822V40.3333H243.855V47H248.055V51.2H243.955V67H238.722ZM259.373 67L272.44 35.9667H272.506L285.606 67H280.106L277.54 60.7667H267.24L264.673 67H259.373ZM269.073 56.3667H275.706L274.14 52.6C273.806 51.8 273.495 51.0222 273.206 50.2667C272.917 49.4889 272.64 48.5889 272.373 47.5667C272.106 48.5889 271.828 49.4778 271.54 50.2333C271.273 50.9889 270.973 51.7778 270.64 52.6L269.073 56.3667ZM288.56 67V47H293.26V49.4667C293.994 48.4667 294.894 47.7111 295.96 47.2C297.027 46.6667 298.183 46.4 299.427 46.4C300.849 46.4 302.172 46.7444 303.394 47.4333C304.638 48.1222 305.638 49.1222 306.394 50.4333C307.149 51.7222 307.527 53.3 307.527 55.1667V67H302.294V55.8667C302.294 54.6222 301.927 53.5222 301.194 52.5667C300.46 51.6111 299.416 51.1333 298.06 51.1333C296.949 51.1333 295.96 51.5222 295.094 52.3C294.227 53.0556 293.794 54.2111 293.794 55.7667V67H288.56ZM310.46 77L317.094 63.7333L308.86 47H314.66L318.36 54.6667C318.694 55.3556 318.994 56 319.26 56.6C319.527 57.2 319.76 57.8222 319.96 58.4667C320.183 57.8222 320.427 57.2 320.694 56.6C320.983 56 321.305 55.3556 321.66 54.6667L325.427 47H330.994L316.094 77H310.46ZM336.081 67V51.2H332.148V47H336.181V40.3333H341.215V47H345.415V51.2H341.315V67H336.081ZM348.748 67V35H353.981V48.8333C354.692 48.0333 355.537 47.4333 356.515 47.0333C357.492 46.6111 358.526 46.4 359.615 46.4C361.037 46.4 362.359 46.7444 363.581 47.4333C364.826 48.1222 365.826 49.1222 366.581 50.4333C367.337 51.7222 367.715 53.3 367.715 55.1667V67H362.481V55.8667C362.481 54.6222 362.115 53.5222 361.381 52.5667C360.648 51.6111 359.603 51.1333 358.248 51.1333C357.137 51.1333 356.148 51.5222 355.281 52.3C354.415 53.0556 353.981 54.2111 353.981 55.7667V67H348.748ZM372.266 67V47H377.499V67H372.266ZM374.899 43.9333C374.077 43.9333 373.377 43.6556 372.799 43.1C372.243 42.5222 371.966 41.8222 371.966 41C371.966 40.1556 372.243 39.4556 372.799 38.9C373.377 38.3444 374.077 38.0667 374.899 38.0667C375.743 38.0667 376.443 38.3444 376.999 38.9C377.555 39.4556 377.832 40.1556 377.832 41C377.832 41.8222 377.555 42.5222 376.999 43.1C376.443 43.6556 375.743 43.9333 374.899 43.9333ZM382.451 67V47H387.151V49.4667C387.884 48.4667 388.784 47.7111 389.851 47.2C390.918 46.6667 392.073 46.4 393.318 46.4C394.74 46.4 396.062 46.7444 397.284 47.4333C398.529 48.1222 399.529 49.1222 400.284 50.4333C401.04 51.7222 401.418 53.3 401.418 55.1667V67H396.184V55.8667C396.184 54.6222 395.818 53.5222 395.084 52.5667C394.351 51.6111 393.307 51.1333 391.951 51.1333C390.84 51.1333 389.851 51.5222 388.984 52.3C388.118 53.0556 387.684 54.2111 387.684 55.7667V67H382.451ZM414.502 77.6C412.947 77.6 411.48 77.3667 410.102 76.9C408.747 76.4556 407.558 75.8444 406.535 75.0667L407.835 69.7667C408.547 70.7222 409.469 71.5 410.602 72.1C411.758 72.7222 413.058 73.0333 414.502 73.0333C416.591 73.0333 418.235 72.4222 419.435 71.2C420.635 70 421.235 68.4444 421.235 66.5333V64.8667C420.435 65.6667 419.491 66.3 418.402 66.7667C417.313 67.2333 416.113 67.4667 414.802 67.4667C412.98 67.4667 411.313 67 409.802 66.0667C408.291 65.1111 407.08 63.8444 406.169 62.2667C405.28 60.6667 404.835 58.9111 404.835 57C404.835 55.0889 405.28 53.3444 406.169 51.7667C407.08 50.1667 408.291 48.9 409.802 47.9667C411.313 47.0111 412.98 46.5333 414.802 46.5333C416.113 46.5333 417.324 46.7667 418.435 47.2333C419.547 47.7 420.491 48.3556 421.269 49.2V47H425.835V67.2C425.835 69.3778 425.313 71.2444 424.269 72.8C423.224 74.3556 421.835 75.5444 420.102 76.3667C418.369 77.1889 416.502 77.6 414.502 77.6ZM415.435 62.8333C416.502 62.8333 417.458 62.5667 418.302 62.0333C419.169 61.5 419.858 60.8 420.369 59.9333C420.88 59.0444 421.135 58.0667 421.135 57C421.135 55.9333 420.88 54.9667 420.369 54.1C419.858 53.2111 419.169 52.5 418.302 51.9667C417.458 51.4333 416.513 51.1667 415.469 51.1667C414.402 51.1667 413.435 51.4333 412.569 51.9667C411.724 52.5 411.047 53.2111 410.535 54.1C410.024 54.9667 409.769 55.9333 409.769 57C409.769 58.0667 410.024 59.0444 410.535 59.9333C411.047 60.8 411.724 61.5 412.569 62.0333C413.435 62.5667 414.391 62.8333 415.435 62.8333Z" fill="black"/>
</g>
<defs>
<clipPath id="clip0_384_93">
<rect width="430" height="102" fill="white"/>
</clipPath>
</defs>
</svg>
