<svg width="1497" height="582" viewBox="0 0 1497 582" fill="none" xmlns="http://www.w3.org/2000/svg">
<path d="M322.379 279.579V320.042L406.75 271.354L371.849 251.201C370.667 252.043 369.457 252.848 368.178 253.57L322.379 279.575V279.579Z" fill="url(#paint0_linear_165_391)"/>
<path d="M252.257 359.761V319.961L167.877 368.676L202.999 388.968C203.809 388.411 204.637 387.873 205.492 387.371L252.262 359.757L252.257 359.761Z" fill="url(#paint1_linear_165_391)"/>
<path d="M287.32 24L150.341 103.053V240.984L31 309.871V467.987L167.882 547.105L304.837 467.987C304.837 467.987 304.621 213.972 304.773 212.477C306.194 198.994 313.982 186.886 325.924 180.115L326.338 179.866C354.551 163.84 389.595 184.204 389.595 216.672V216.764C389.595 230.542 382.906 243.298 371.856 251.224L406.762 271.368L424.303 261.234V103.053L287.315 24H287.32ZM150.346 496.462L66.0347 447.751V350.357L150.346 399.1V496.462ZM249.033 460.001L248.274 460.447C220.047 476.828 184.677 456.454 184.677 423.83C184.677 409.837 191.577 396.85 203.004 388.966L83.5566 319.964L83.5336 319.941L184.672 261.666L185.399 261.229V143.525L269.775 192.268L270.115 423.32C270.147 438.431 262.106 452.397 249.028 460.001H249.033ZM287.32 161.931L202.912 113.22L287.32 64.4766L371.695 113.22L287.32 161.931Z" fill="url(#paint2_linear_165_391)"/>
<path d="M599.464 405V172.485H684.381C707.584 172.485 727.403 176.997 743.839 186.021C760.274 195.044 772.896 208.149 781.705 225.337C790.514 242.524 794.918 263.364 794.918 287.856V288.179C794.918 312.671 790.514 333.672 781.705 351.182C773.004 368.584 760.382 381.904 743.839 391.143C727.403 400.381 707.584 405 684.381 405H599.464ZM641.036 370.034H680.03C695.714 370.034 708.927 366.919 719.669 360.688C730.411 354.351 738.575 345.166 744.161 333.135C749.747 320.996 752.54 306.064 752.54 288.34V288.018C752.54 270.723 749.693 256.06 744 244.028C738.414 231.997 730.196 222.92 719.347 216.797C708.604 210.566 695.499 207.451 680.03 207.451H641.036V370.034ZM894.06 408.384C876.98 408.384 862.263 404.785 849.909 397.588C837.663 390.391 828.264 380.186 821.711 366.973C815.158 353.76 811.882 338.13 811.882 320.083V319.922C811.882 301.982 815.158 286.353 821.711 273.032C828.371 259.604 837.663 249.185 849.587 241.772C861.618 234.36 875.798 230.654 892.126 230.654C908.347 230.654 922.365 234.253 934.182 241.45C946.106 248.54 955.237 258.53 961.574 271.421C968.02 284.312 971.242 299.351 971.242 316.538V329.429H831.701V302.681H952.068L932.732 327.656V312.188C932.732 301.016 931.013 291.724 927.575 284.312C924.138 276.899 919.411 271.367 913.396 267.715C907.38 263.955 900.451 262.075 892.61 262.075C884.66 262.075 877.571 264.009 871.34 267.876C865.217 271.636 860.383 277.275 856.838 284.795C853.401 292.314 851.682 301.445 851.682 312.188V327.656C851.682 338.076 853.401 346.992 856.838 354.404C860.383 361.709 865.378 367.349 871.823 371.323C878.269 375.19 885.949 377.124 894.865 377.124C901.526 377.124 907.38 376.104 912.429 374.062C917.478 371.914 921.613 369.175 924.836 365.845C928.166 362.515 930.476 358.916 931.765 355.049L932.087 353.921H969.47L969.148 355.693C967.751 362.246 965.173 368.691 961.413 375.029C957.654 381.26 952.605 386.899 946.267 391.948C939.929 396.997 932.409 401.025 923.708 404.033C915.007 406.934 905.124 408.384 894.06 408.384ZM991.913 405V234.199H1031.87V263.687H1032.84C1035.42 253.374 1040.09 245.317 1046.86 239.517C1053.73 233.608 1062.11 230.654 1072 230.654C1074.47 230.654 1076.83 230.815 1079.09 231.138C1081.34 231.46 1083.22 231.836 1084.73 232.266V268.521C1083.11 267.876 1080.8 267.339 1077.8 266.909C1074.9 266.479 1071.73 266.265 1068.29 266.265C1060.77 266.265 1054.27 267.822 1048.79 270.938C1043.31 273.945 1039.12 278.403 1036.22 284.312C1033.32 290.22 1031.87 297.417 1031.87 305.903V405H991.913ZM1101.53 405V234.199H1141.65V405H1101.53ZM1121.51 209.707C1115.28 209.707 1110.01 207.559 1105.72 203.262C1101.42 198.965 1099.27 193.809 1099.27 187.793C1099.27 181.67 1101.42 176.514 1105.72 172.324C1110.01 168.027 1115.28 165.879 1121.51 165.879C1127.85 165.879 1133.16 168.027 1137.46 172.324C1141.76 176.514 1143.91 181.67 1143.91 187.793C1143.91 193.809 1141.76 198.965 1137.46 203.262C1133.16 207.559 1127.85 209.707 1121.51 209.707ZM1216.94 405L1156.52 234.199H1199.22L1238.86 367.778H1239.83L1279.46 234.199H1321.2L1261.09 405H1216.94ZM1403.74 408.384C1386.66 408.384 1371.95 404.785 1359.59 397.588C1347.35 390.391 1337.95 380.186 1331.39 366.973C1324.84 353.76 1321.56 338.13 1321.56 320.083V319.922C1321.56 301.982 1324.84 286.353 1331.39 273.032C1338.05 259.604 1347.35 249.185 1359.27 241.772C1371.3 234.36 1385.48 230.654 1401.81 230.654C1418.03 230.654 1432.05 234.253 1443.86 241.45C1455.79 248.54 1464.92 258.53 1471.26 271.421C1477.7 284.312 1480.92 299.351 1480.92 316.538V329.429H1341.38V302.681H1461.75L1442.41 327.656V312.188C1442.41 301.016 1440.7 291.724 1437.26 284.312C1433.82 276.899 1429.09 271.367 1423.08 267.715C1417.06 263.955 1410.13 262.075 1402.29 262.075C1394.34 262.075 1387.25 264.009 1381.02 267.876C1374.9 271.636 1370.07 277.275 1366.52 284.795C1363.08 292.314 1361.36 301.445 1361.36 312.188V327.656C1361.36 338.076 1363.08 346.992 1366.52 354.404C1370.07 361.709 1375.06 367.349 1381.51 371.323C1387.95 375.19 1395.63 377.124 1404.55 377.124C1411.21 377.124 1417.06 376.104 1422.11 374.062C1427.16 371.914 1431.3 369.175 1434.52 365.845C1437.85 362.515 1440.16 358.916 1441.45 355.049L1441.77 353.921H1479.15L1478.83 355.693C1477.43 362.246 1474.86 368.691 1471.1 375.029C1467.34 381.26 1462.29 386.899 1455.95 391.948C1449.61 396.997 1442.09 401.025 1433.39 404.033C1424.69 406.934 1414.81 408.384 1403.74 408.384Z" fill="#030712"/>
<defs>
<linearGradient id="paint0_linear_165_391" x1="384.439" y1="268.691" x2="315.631" y2="299.912" gradientUnits="userSpaceOnUse">
<stop stop-color="#030712"/>
<stop offset="0.09" stop-color="#030712" stop-opacity="0.97"/>
<stop offset="0.22" stop-color="#030712" stop-opacity="0.88"/>
<stop offset="0.38" stop-color="#030712" stop-opacity="0.74"/>
<stop offset="0.57" stop-color="#030712" stop-opacity="0.55"/>
<stop offset="0.78" stop-color="#030712" stop-opacity="0.29"/>
<stop offset="1" stop-color="#030712" stop-opacity="0"/>
</linearGradient>
<linearGradient id="paint1_linear_165_391" x1="186.365" y1="381.12" x2="257.317" y2="330.532" gradientUnits="userSpaceOnUse">
<stop stop-color="#030712"/>
<stop offset="0.09" stop-color="#030712" stop-opacity="0.97"/>
<stop offset="0.2" stop-color="#030712" stop-opacity="0.91"/>
<stop offset="0.34" stop-color="#030712" stop-opacity="0.79"/>
<stop offset="0.49" stop-color="#030712" stop-opacity="0.63"/>
<stop offset="0.65" stop-color="#030712" stop-opacity="0.43"/>
<stop offset="0.82" stop-color="#030712" stop-opacity="0.18"/>
<stop offset="0.93" stop-color="#030712" stop-opacity="0"/>
</linearGradient>
<linearGradient id="paint2_linear_165_391" x1="-2.12099" y1="350.09" x2="457.442" y2="220.978" gradientUnits="userSpaceOnUse">
<stop stop-color="#030712"/>
<stop offset="0.2" stop-color="#030712"/>
<stop offset="1" stop-color="#030712"/>
</linearGradient>
</defs>
</svg>
