<svg width="430" height="102" viewBox="0 0 430 102" fill="none" xmlns="http://www.w3.org/2000/svg">
<g clip-path="url(#clip0_384_110)">
<path d="M28.9309 40.8462L6 51L28.9309 61.1538M28.9309 40.8462L59.5 54.3846L90.0691 40.8462M28.9309 40.8462L6 30.6923L59.5 7L113 30.6923L90.0691 40.8462M28.9309 61.1538L6 71.3077L59.5 95L113 71.3077L90.0691 61.1538M28.9309 61.1538L59.5 74.6923L90.0691 61.1538M90.0691 40.8462L113 51L90.0691 61.1538" stroke="white" stroke-width="5.5" stroke-linecap="round" stroke-linejoin="round"/>
<path d="M54.6765 43.2435L50.3002 40.4646L47.946 41.7695L45.5148 40.2256L47.8689 38.9207L43.2495 35.9873L40.803 37.3435L38.3717 35.7996L40.8182 34.4435L36.4419 31.6645L39.4654 29.9885L43.8417 32.7675L47.673 30.6438L43.2967 27.8648L46.3202 26.1888L50.6965 28.9678L53.0969 27.6373L55.5282 29.1812L53.1278 30.5117L57.7473 33.445L60.2399 32.0633L62.6712 33.6072L60.1786 34.9889L64.5549 37.7679L61.5314 39.4438L57.1551 36.6649L53.3237 38.7886L57.7001 41.5676L54.6765 43.2435ZM50.8766 37.4222L55.031 35.1194L50.1202 32.0102L45.9658 34.313L50.8766 37.4222ZM73.5454 32.7844L70.4114 31.389L74.912 28.8943L61.219 22.7978L59.0809 26.3444L55.3683 24.6915L59.2046 18.3482L78.4664 26.9241L82.0438 24.9411L85.1778 26.3364L73.5454 32.7844Z" fill="white"/>
<path d="M141.467 67V37H151.567C154.033 37 156.256 37.4111 158.233 38.2333C160.211 39.0333 161.9 40.1333 163.3 41.5333C164.722 42.9111 165.8 44.5111 166.533 46.3333C167.289 48.1333 167.667 50.0222 167.667 52C167.667 53.9778 167.289 55.8778 166.533 57.7C165.8 59.5 164.722 61.1 163.3 62.5C161.9 63.8778 160.211 64.9778 158.233 65.8C156.256 66.6 154.033 67 151.567 67H141.467ZM146.733 62.1H151.067C152.911 62.1 154.511 61.8222 155.867 61.2667C157.222 60.7111 158.356 59.9667 159.267 59.0333C160.178 58.0778 160.856 57 161.3 55.8C161.744 54.5778 161.967 53.3111 161.967 52C161.967 50.6889 161.744 49.4333 161.3 48.2333C160.856 47.0111 160.178 45.9222 159.267 44.9667C158.356 44.0111 157.222 43.2667 155.867 42.7333C154.511 42.1778 152.911 41.9 151.067 41.9H146.733V62.1ZM171.967 67V47H176.667V50.5C177.378 49.3444 178.267 48.4444 179.333 47.8C180.422 47.1333 181.711 46.8 183.2 46.8L184.367 51.5333C183.944 51.4 183.467 51.3333 182.933 51.3333C181.2 51.3333 179.811 51.8889 178.767 53C177.722 54.1111 177.2 55.6889 177.2 57.7333V67H171.967ZM195.411 67.4667C193.589 67.4667 191.923 67 190.411 66.0667C188.9 65.1111 187.689 63.8444 186.778 62.2667C185.889 60.6667 185.445 58.9111 185.445 57C185.445 55.0889 185.889 53.3444 186.778 51.7667C187.689 50.1667 188.9 48.9 190.411 47.9667C191.923 47.0111 193.589 46.5333 195.411 46.5333C196.723 46.5333 197.934 46.7667 199.045 47.2333C200.156 47.7 201.1 48.3556 201.878 49.2V47H206.445V67H201.878V64.8C201.1 65.6222 200.156 66.2778 199.045 66.7667C197.934 67.2333 196.723 67.4667 195.411 67.4667ZM196.045 62.8333C197.111 62.8333 198.067 62.5667 198.911 62.0333C199.778 61.5 200.467 60.8 200.978 59.9333C201.489 59.0444 201.745 58.0667 201.745 57C201.745 55.9333 201.489 54.9667 200.978 54.1C200.467 53.2111 199.778 52.5 198.911 51.9667C198.067 51.4333 197.123 51.1667 196.078 51.1667C195.011 51.1667 194.045 51.4333 193.178 51.9667C192.334 52.5 191.656 53.2111 191.145 54.1C190.634 54.9667 190.378 55.9333 190.378 57C190.378 58.0667 190.634 59.0444 191.145 59.9333C191.656 60.8 192.334 61.5 193.178 62.0333C194.045 62.5667 195 62.8333 196.045 62.8333ZM213.722 67V51.2H209.789V47H213.822V41.7333C213.822 39.4 214.5 37.6333 215.855 36.4333C217.211 35.2111 218.877 34.6 220.855 34.6C221.589 34.6 222.3 34.6889 222.989 34.8667C223.7 35.0222 224.333 35.2778 224.889 35.6333L223.822 40.0333C223.089 39.1667 222.233 38.7333 221.255 38.7333C220.677 38.7333 220.133 38.9444 219.622 39.3667C219.111 39.7667 218.855 40.5333 218.855 41.6667V47H223.055V51.2H218.955V67H213.722ZM228.722 67V51.2H224.789V47H228.822V40.3333H233.855V47H238.055V51.2H233.955V67H228.722ZM249.373 67L262.44 35.9667H262.506L275.606 67H270.106L267.54 60.7667H257.24L254.673 67H249.373ZM259.073 56.3667H265.706L264.14 52.6C263.806 51.8 263.495 51.0222 263.206 50.2667C262.917 49.4889 262.64 48.5889 262.373 47.5667C262.106 48.5889 261.828 49.4778 261.54 50.2333C261.273 50.9889 260.973 51.7778 260.64 52.6L259.073 56.3667ZM278.56 67V47H283.26V49.4667C283.994 48.4667 284.894 47.7111 285.96 47.2C287.027 46.6667 288.183 46.4 289.427 46.4C290.849 46.4 292.172 46.7444 293.394 47.4333C294.638 48.1222 295.638 49.1222 296.394 50.4333C297.149 51.7222 297.527 53.3 297.527 55.1667V67H292.294V55.8667C292.294 54.6222 291.927 53.5222 291.194 52.5667C290.46 51.6111 289.416 51.1333 288.06 51.1333C286.949 51.1333 285.96 51.5222 285.094 52.3C284.227 53.0556 283.794 54.2111 283.794 55.7667V67H278.56ZM300.46 77L307.094 63.7333L298.86 47H304.66L308.36 54.6667C308.694 55.3556 308.994 56 309.26 56.6C309.527 57.2 309.76 57.8222 309.96 58.4667C310.183 57.8222 310.427 57.2 310.694 56.6C310.983 56 311.305 55.3556 311.66 54.6667L315.427 47H320.994L306.094 77H300.46ZM326.081 67V51.2H322.148V47H326.181V40.3333H331.215V47H335.415V51.2H331.315V67H326.081ZM338.748 67V35H343.981V48.8333C344.692 48.0333 345.537 47.4333 346.515 47.0333C347.492 46.6111 348.526 46.4 349.615 46.4C351.037 46.4 352.359 46.7444 353.581 47.4333C354.826 48.1222 355.826 49.1222 356.581 50.4333C357.337 51.7222 357.715 53.3 357.715 55.1667V67H352.481V55.8667C352.481 54.6222 352.115 53.5222 351.381 52.5667C350.648 51.6111 349.603 51.1333 348.248 51.1333C347.137 51.1333 346.148 51.5222 345.281 52.3C344.415 53.0556 343.981 54.2111 343.981 55.7667V67H338.748ZM362.266 67V47H367.499V67H362.266ZM364.899 43.9333C364.077 43.9333 363.377 43.6556 362.799 43.1C362.243 42.5222 361.966 41.8222 361.966 41C361.966 40.1556 362.243 39.4556 362.799 38.9C363.377 38.3444 364.077 38.0667 364.899 38.0667C365.743 38.0667 366.443 38.3444 366.999 38.9C367.555 39.4556 367.832 40.1556 367.832 41C367.832 41.8222 367.555 42.5222 366.999 43.1C366.443 43.6556 365.743 43.9333 364.899 43.9333ZM372.451 67V47H377.151V49.4667C377.884 48.4667 378.784 47.7111 379.851 47.2C380.918 46.6667 382.073 46.4 383.318 46.4C384.74 46.4 386.062 46.7444 387.284 47.4333C388.529 48.1222 389.529 49.1222 390.284 50.4333C391.04 51.7222 391.418 53.3 391.418 55.1667V67H386.184V55.8667C386.184 54.6222 385.818 53.5222 385.084 52.5667C384.351 51.6111 383.307 51.1333 381.951 51.1333C380.84 51.1333 379.851 51.5222 378.984 52.3C378.118 53.0556 377.684 54.2111 377.684 55.7667V67H372.451ZM404.502 77.6C402.947 77.6 401.48 77.3667 400.102 76.9C398.747 76.4556 397.558 75.8444 396.535 75.0667L397.835 69.7667C398.547 70.7222 399.469 71.5 400.602 72.1C401.758 72.7222 403.058 73.0333 404.502 73.0333C406.591 73.0333 408.235 72.4222 409.435 71.2C410.635 70 411.235 68.4444 411.235 66.5333V64.8667C410.435 65.6667 409.491 66.3 408.402 66.7667C407.313 67.2333 406.113 67.4667 404.802 67.4667C402.98 67.4667 401.313 67 399.802 66.0667C398.291 65.1111 397.08 63.8444 396.169 62.2667C395.28 60.6667 394.835 58.9111 394.835 57C394.835 55.0889 395.28 53.3444 396.169 51.7667C397.08 50.1667 398.291 48.9 399.802 47.9667C401.313 47.0111 402.98 46.5333 404.802 46.5333C406.113 46.5333 407.324 46.7667 408.435 47.2333C409.547 47.7 410.491 48.3556 411.269 49.2V47H415.835V67.2C415.835 69.3778 415.313 71.2444 414.269 72.8C413.224 74.3556 411.835 75.5444 410.102 76.3667C408.369 77.1889 406.502 77.6 404.502 77.6ZM405.435 62.8333C406.502 62.8333 407.458 62.5667 408.302 62.0333C409.169 61.5 409.858 60.8 410.369 59.9333C410.88 59.0444 411.135 58.0667 411.135 57C411.135 55.9333 410.88 54.9667 410.369 54.1C409.858 53.2111 409.169 52.5 408.302 51.9667C407.458 51.4333 406.513 51.1667 405.469 51.1667C404.402 51.1667 403.435 51.4333 402.569 51.9667C401.724 52.5 401.047 53.2111 400.535 54.1C400.024 54.9667 399.769 55.9333 399.769 57C399.769 58.0667 400.024 59.0444 400.535 59.9333C401.047 60.8 401.724 61.5 402.569 62.0333C403.435 62.5667 404.391 62.8333 405.435 62.8333Z" fill="white"/>
</g>
<defs>
<clipPath id="clip0_384_110">
<rect width="430" height="102" fill="white"/>
</clipPath>
</defs>
</svg>
