<svg width="1395" height="582" viewBox="0 0 1395 582" fill="none" xmlns="http://www.w3.org/2000/svg">
<g clip-path="url(#clip0_372_25)">
<path d="M322.379 279.579V320.042L406.75 271.354L371.849 251.201C370.667 252.043 369.457 252.848 368.178 253.57L322.379 279.575V279.579Z" fill="url(#paint0_linear_372_25)"/>
<path d="M252.255 359.761V319.961L167.875 368.676L202.997 388.968C203.807 388.411 204.635 387.873 205.49 387.371L252.26 359.757L252.255 359.761Z" fill="url(#paint1_linear_372_25)"/>
<path d="M287.32 24L150.341 103.053V240.984L31 309.871V467.987L167.882 547.105L304.837 467.987C304.837 467.987 304.621 213.972 304.773 212.477C306.194 198.994 313.982 186.886 325.924 180.115L326.338 179.866C354.551 163.84 389.595 184.204 389.595 216.672V216.764C389.595 230.542 382.906 243.298 371.856 251.224L406.762 271.368L424.303 261.234V103.053L287.315 24H287.32ZM150.346 496.462L66.0347 447.751V350.357L150.346 399.1V496.462ZM249.033 460.001L248.274 460.447C220.047 476.828 184.677 456.454 184.677 423.83C184.677 409.837 191.577 396.85 203.004 388.966L83.5566 319.964L83.5336 319.941L184.672 261.666L185.399 261.229V143.525L269.775 192.268L270.115 423.32C270.147 438.431 262.106 452.397 249.028 460.001H249.033ZM287.32 161.931L202.912 113.22L287.32 64.4766L371.695 113.22L287.32 161.931Z" fill="url(#paint2_linear_372_25)"/>
<path d="M612.9 166.7C612.9 174.5 612.367 182 611.3 189.2C610.233 196.333 608.133 203.033 605 209.3C601.867 215.5 597.2 221.067 591 226C588 228.4 584.4 230.333 580.2 231.8C576 233.267 571.7 234.333 567.3 235C562.9 235.733 558.867 236.1 555.2 236.1C549.667 236.1 544.367 236.033 539.3 235.9C534.3 235.833 529.267 235.733 524.2 235.6C519.2 235.533 513.8 235.433 508 235.3L506.6 233.9V99.5L508 98.1C513.733 97.9 519.133 97.7667 524.2 97.7C529.267 97.5667 534.3 97.5 539.3 97.5C544.367 97.4333 549.667 97.4 555.2 97.4C558.867 97.4 562.9 97.7667 567.3 98.5C571.7 99.1667 576 100.233 580.2 101.7C584.467 103.167 588.067 105.1 591 107.5C597.133 112.433 601.767 118.033 604.9 124.3C608.033 130.5 610.133 137.2 611.2 144.4C612.333 151.533 612.9 158.967 612.9 166.7ZM585.2 166.7C585.2 161.167 584.833 155.567 584.1 149.9C583.367 144.233 582 139.067 580 134.4C578 129.667 575 125.867 571 123C567 120.067 561.733 118.6 555.2 118.6C551.4 118.6 547.8 118.6 544.4 118.6C541.067 118.533 537.4 118.467 533.4 118.4V214.9C537.4 214.833 541.067 214.833 544.4 214.9C547.8 214.9 551.4 214.9 555.2 214.9C561.733 214.9 567 213.467 571 210.6C575 207.667 578 203.833 580 199.1C582 194.3 583.367 189.067 584.1 183.4C584.833 177.733 585.2 172.167 585.2 166.7ZM720.041 158.1C720.041 163.1 718.907 167.567 716.641 171.5C714.441 175.433 711.574 178.733 708.041 181.4C704.574 184.067 700.941 185.8 697.141 186.6C700.607 187.867 703.441 189.7 705.641 192.1C707.841 194.433 709.741 197.433 711.341 201.1L717.641 215.3C718.841 218.033 720.174 220.533 721.641 222.8C723.107 225.067 724.674 226.967 726.341 228.5C724.674 230.633 722.207 232.533 718.941 234.2C715.674 235.8 712.207 236.6 708.541 236.6C704.541 236.6 701.374 235.633 699.041 233.7C696.707 231.7 694.641 228.6 692.841 224.4L683.541 203.2C682.007 199.667 680.107 197.3 677.841 196.1C675.641 194.833 672.507 194.2 668.441 194.2H648.941V174.2C651.607 174.2 654.641 174.167 658.041 174.1C661.441 174.033 664.674 173.967 667.741 173.9C670.807 173.833 673.141 173.8 674.741 173.8C679.474 173.8 683.141 173.067 685.741 171.6C688.407 170.133 690.241 168.233 691.241 165.9C692.307 163.567 692.841 161.167 692.841 158.7C692.841 156.167 692.307 153.767 691.241 151.5C690.174 149.233 688.407 147.433 685.941 146.1C683.474 144.7 680.107 144 675.841 144C673.241 144 670.674 143.967 668.141 143.9C665.674 143.833 663.141 143.8 660.541 143.8V235C658.341 235.4 656.041 235.667 653.641 235.8C651.307 235.933 649.241 236 647.441 236C645.774 236 643.674 235.933 641.141 235.8C638.607 235.667 636.307 235.4 634.241 235V126.3L635.241 125.2C642.841 125 650.007 124.833 656.741 124.7C663.474 124.567 670.241 124.5 677.041 124.5C685.107 124.5 692.407 125.6 698.941 127.8C705.474 130 710.607 133.6 714.341 138.6C718.141 143.533 720.041 150.033 720.041 158.1ZM768.459 125.3C771.126 124.9 773.859 124.633 776.659 124.5C779.526 124.367 782.059 124.3 784.259 124.3C786.326 124.3 788.626 124.367 791.159 124.5C793.693 124.633 796.326 124.9 799.059 125.3L837.659 233.7C835.726 234.7 833.259 235.433 830.259 235.9C827.326 236.367 824.826 236.6 822.759 236.6C819.493 236.6 816.493 235.967 813.759 234.7C811.093 233.433 808.959 230.233 807.359 225.1L792.159 179.6C791.226 176.4 790.193 172.833 789.059 168.9C787.993 164.967 786.926 161.033 785.859 157.1C784.859 153.167 783.926 149.533 783.059 146.2H781.959C780.626 150.933 779.126 156.267 777.459 162.2C775.859 168.133 774.359 173.3 772.959 177.7L753.659 235.1C751.993 235.433 750.193 235.7 748.259 235.9C746.326 236.1 744.359 236.2 742.359 236.2C740.093 236.2 737.826 236.033 735.559 235.7C733.293 235.367 731.459 234.9 730.059 234.3L729.059 232.9L768.459 125.3ZM769.259 213.3C768.459 213.3 767.426 213.3 766.159 213.3C764.959 213.233 763.726 213.2 762.459 213.2C761.193 213.133 760.159 213.1 759.359 213.1H747.759L756.059 192.3H766.159C766.893 192.3 767.826 192.3 768.959 192.3C770.159 192.233 771.326 192.2 772.459 192.2C773.659 192.133 774.626 192.1 775.359 192.1H789.959C790.759 192.1 791.659 192.133 792.659 192.2C793.726 192.2 794.759 192.233 795.759 192.3C796.826 192.3 797.759 192.3 798.559 192.3H809.259L816.759 213.1H804.759C803.959 213.1 802.959 213.133 801.759 213.2C800.559 213.2 799.359 213.233 798.159 213.3C796.959 213.3 795.993 213.3 795.259 213.3H769.259ZM878.569 235C876.302 235.4 873.969 235.667 871.569 235.8C869.235 235.933 867.135 236 865.269 236C863.335 236 861.202 235.933 858.869 235.8C856.535 235.667 854.269 235.4 852.069 235V126.2L853.069 125.3H878.369V132.7C878.369 137.167 878.402 141.667 878.469 146.2C878.535 150.667 878.569 155 878.569 159.2V235ZM927.469 125.3C927.869 126.833 928.169 128.567 928.369 130.5C928.635 132.367 928.769 133.933 928.769 135.2C928.769 139 927.735 141.967 925.669 144.1C923.669 146.233 920.235 147.3 915.369 147.3H892.269C887.735 147.3 883.435 147.267 879.369 147.2C875.302 147.133 871.302 147.033 867.369 146.9V125.3H927.469ZM916.869 171C917.335 172.533 917.669 174.267 917.869 176.2C918.069 178.133 918.169 179.8 918.169 181.2C918.169 182.667 918.069 184.433 917.869 186.5C917.669 188.567 917.335 190.367 916.869 191.9H883.069C880.602 191.9 878.002 191.867 875.269 191.8C872.535 191.667 870.235 191.6 868.369 191.6V171.3C870.235 171.3 872.535 171.267 875.269 171.2C878.002 171.067 880.602 171 883.069 171H916.869ZM930.877 146.9C930.477 144.9 930.21 143.033 930.077 141.3C929.943 139.5 929.877 137.833 929.877 136.3C929.877 134.833 929.943 133.133 930.077 131.2C930.21 129.2 930.477 127.233 930.877 125.3H1017.88C1018.28 126.833 1018.58 128.567 1018.78 130.5C1019.04 132.367 1019.18 133.933 1019.18 135.2C1019.18 139 1018.14 141.9 1016.08 143.9C1014.08 145.9 1010.61 146.9 1005.68 146.9H998.477C997.143 146.9 995.343 146.867 993.077 146.8C990.81 146.733 989.077 146.7 987.877 146.7H961.677C960.343 146.7 958.477 146.733 956.077 146.8C953.743 146.867 951.91 146.9 950.577 146.9H930.877ZM961.477 158.8C961.477 156.667 961.51 154.7 961.577 152.9C961.643 151.033 961.677 148.967 961.677 146.7V136.3H987.877V146.7C987.877 148.967 987.91 151.033 987.977 152.9C988.043 154.7 988.077 156.667 988.077 158.8V235C986.41 235.333 984.243 235.567 981.577 235.7C978.91 235.9 976.643 236 974.777 236C972.977 236 970.777 235.9 968.177 235.7C965.577 235.567 963.343 235.333 961.477 235V158.8ZM537.5 302.4C539.567 302.067 542.1 301.833 545.1 301.7C548.1 301.5 550.733 301.4 553 301.4C555.133 301.4 557.7 301.5 560.7 301.7C563.7 301.9 566.233 302.167 568.3 302.5L612.2 437.3C610.333 438.367 607.933 439.167 605 439.7C602.133 440.3 599.4 440.6 596.8 440.6C592.533 440.6 589.2 439.633 586.8 437.7C584.467 435.7 582.467 431.867 580.8 426.2L562.7 366.4C561.033 360.667 559.2 354.267 557.2 347.2C555.267 340.133 553.533 333.633 552 327.7H550.8C550.133 331.033 549.267 334.733 548.2 338.8C547.2 342.867 546.133 346.9 545 350.9C543.933 354.833 542.967 358.3 542.1 361.3L518.2 439.2C516.533 439.6 514.7 439.867 512.7 440C510.767 440.133 508.767 440.2 506.7 440.2C504.567 440.2 502.267 440.033 499.8 439.7C497.4 439.367 495.367 438.933 493.7 438.4L492.8 437L537.5 302.4ZM537.4 408.3C536.6 408.3 535.433 408.3 533.9 408.3C532.367 408.233 530.8 408.2 529.2 408.2C527.667 408.133 526.5 408.1 525.7 408.1H512.2L520.4 386.9H532.3C533.1 386.9 534.2 386.9 535.6 386.9C537.067 386.833 538.5 386.8 539.9 386.8C541.3 386.733 542.4 386.7 543.2 386.7H560.4C561.2 386.7 562.3 386.733 563.7 386.8C565.167 386.8 566.633 386.833 568.1 386.9C569.567 386.9 570.7 386.9 571.5 386.9H583.8L590.7 408.1H577.2C576.4 408.1 575.2 408.133 573.6 408.2C572 408.2 570.433 408.233 568.9 408.3C567.367 408.3 566.2 408.3 565.4 408.3H537.4ZM627.795 329.8C629.862 329.333 632.429 328.967 635.495 328.7C638.562 328.433 640.962 328.3 642.695 328.3C644.629 328.3 647.129 328.367 650.195 328.5C653.329 328.567 655.929 328.833 657.995 329.3L652.295 359L650.795 359.5C651.062 364.167 651.295 369.3 651.495 374.9C651.762 380.433 651.962 385.6 652.095 390.4C652.229 395.133 652.295 398.7 652.295 401.1V439C650.095 439.4 647.962 439.667 645.895 439.8C643.895 439.933 641.995 440 640.195 440C638.595 440 636.629 439.933 634.295 439.8C632.029 439.667 629.862 439.4 627.795 439V329.8ZM662.795 383.1C662.129 381.833 661.262 380.133 660.195 378C659.195 375.8 658.129 373.5 656.995 371.1C655.929 368.7 654.895 366.433 653.895 364.3C652.962 362.1 652.162 360.333 651.495 359L643.495 350.1L657.995 329.3L687.195 385.2C687.862 386.4 688.729 388.133 689.795 390.4C690.929 392.667 692.062 395.1 693.195 397.7C694.395 400.3 695.529 402.8 696.595 405.2C697.729 407.533 698.629 409.4 699.295 410.8L708.195 420L692.195 439L662.795 383.1ZM722.895 329.5V438.6C720.695 439.067 718.062 439.4 714.995 439.6C711.995 439.867 709.629 440 707.895 440C706.629 440 705.029 439.967 703.095 439.9C701.162 439.833 699.195 439.733 697.195 439.6C695.262 439.533 693.595 439.333 692.195 439L698.695 410.8L700.195 410.4C699.929 406.4 699.595 401.7 699.195 396.3C698.795 390.833 698.462 385.533 698.195 380.4C697.929 375.267 697.795 371.167 697.795 368.1V343C697.795 337.133 698.995 333.2 701.395 331.2C703.862 329.2 707.695 328.2 712.895 328.2H721.795L722.895 329.5ZM771.567 395.6H797.667V439C795.534 439.4 793.334 439.667 791.067 439.8C788.801 439.933 786.734 440 784.867 440C783.201 440 781.101 439.933 778.567 439.8C776.034 439.667 773.701 439.4 771.567 439V395.6ZM806.567 329.4C808.567 328.933 810.601 328.633 812.667 328.5C814.734 328.367 816.634 328.3 818.367 328.3C820.567 328.3 822.734 328.433 824.867 328.7C827.067 328.9 829.001 329.3 830.667 329.9L831.867 331.3L795.967 411.2H773.767L737.667 331.6C740.201 330.4 742.901 329.467 745.767 328.8C748.701 328.067 751.367 327.7 753.767 327.7C757.434 327.7 760.367 328.467 762.567 330C764.834 331.533 766.701 334.167 768.167 337.9L777.867 361.2C779.601 365.533 781.034 369.367 782.167 372.7C783.367 376.033 784.334 379.567 785.067 383.3H786.267C787.401 379.233 788.634 375.2 789.967 371.2C791.301 367.133 792.767 363.033 794.367 358.9L806.567 329.4ZM832.9 350.9C832.5 348.9 832.233 347.033 832.1 345.3C831.967 343.5 831.9 341.833 831.9 340.3C831.9 338.833 831.967 337.133 832.1 335.2C832.233 333.2 832.5 331.233 832.9 329.3H919.9C920.3 330.833 920.6 332.567 920.8 334.5C921.067 336.367 921.2 337.933 921.2 339.2C921.2 343 920.167 345.9 918.1 347.9C916.1 349.9 912.633 350.9 907.7 350.9H900.5C899.167 350.9 897.367 350.867 895.1 350.8C892.833 350.733 891.1 350.7 889.9 350.7H863.7C862.367 350.7 860.5 350.733 858.1 350.8C855.767 350.867 853.933 350.9 852.6 350.9H832.9ZM863.5 362.8C863.5 360.667 863.533 358.7 863.6 356.9C863.667 355.033 863.7 352.967 863.7 350.7V340.3H889.9V350.7C889.9 352.967 889.933 355.033 890 356.9C890.067 358.7 890.1 360.667 890.1 362.8V439C888.433 439.333 886.267 439.567 883.6 439.7C880.933 439.9 878.667 440 876.8 440C875 440 872.8 439.9 870.2 439.7C867.6 439.567 865.367 439.333 863.5 439V362.8ZM969.239 392.9C968.506 392.9 967.539 392.9 966.339 392.9C965.206 392.833 964.039 392.8 962.839 392.8C961.706 392.733 960.739 392.7 959.939 392.7C957.339 392.7 954.706 392.733 952.039 392.8C949.439 392.867 946.839 392.9 944.239 392.9V371.2C946.839 371.2 949.439 371.233 952.039 371.3C954.706 371.367 957.339 371.4 959.939 371.4C960.739 371.4 961.706 371.4 962.839 371.4C964.039 371.333 965.206 371.3 966.339 371.3C967.539 371.233 968.506 371.2 969.239 371.2H991.739C992.539 371.2 993.506 371.233 994.639 371.3C995.772 371.3 996.906 371.333 998.039 371.4C999.172 371.4 1000.17 371.4 1001.04 371.4C1003.64 371.4 1006.21 371.367 1008.74 371.3C1011.34 371.233 1013.94 371.2 1016.54 371.2V392.9C1013.94 392.9 1011.34 392.867 1008.74 392.8C1006.21 392.733 1003.64 392.7 1001.04 392.7C1000.17 392.7 999.172 392.733 998.039 392.8C996.906 392.8 995.772 392.833 994.639 392.9C993.506 392.9 992.539 392.9 991.739 392.9H969.239ZM960.139 439C957.939 439.4 955.672 439.667 953.339 439.8C951.006 439.933 948.939 440 947.139 440C945.472 440 943.306 439.933 940.639 439.8C938.039 439.667 935.706 439.4 933.639 439V329.3C935.706 328.833 938.039 328.533 940.639 328.4C943.306 328.267 945.472 328.2 947.139 328.2C948.939 328.2 951.006 328.267 953.339 328.4C955.672 328.533 957.939 328.833 960.139 329.3V359.6C960.139 361.867 960.106 363.867 960.039 365.6C959.972 367.333 959.939 369.267 959.939 371.4V392.7C959.939 394.833 959.972 396.767 960.039 398.5C960.106 400.233 960.139 402.267 960.139 404.6V439ZM1000.84 404.6C1000.84 402.267 1000.87 400.233 1000.94 398.5C1001.01 396.767 1001.04 394.833 1001.04 392.7V371.4C1001.04 369.267 1001.01 367.333 1000.94 365.6C1000.87 363.867 1000.84 361.867 1000.84 359.6V329.3C1002.91 328.833 1005.11 328.533 1007.44 328.4C1009.84 328.267 1011.94 328.2 1013.74 328.2C1015.41 328.2 1017.54 328.267 1020.14 328.4C1022.81 328.533 1025.21 328.833 1027.34 329.3V439C1025.07 439.4 1022.74 439.667 1020.34 439.8C1018.01 439.933 1015.91 440 1014.04 440C1012.11 440 1009.97 439.933 1007.64 439.8C1005.31 439.667 1003.04 439.4 1000.84 439V404.6ZM1055.94 329.3C1058.01 328.9 1060.34 328.633 1062.94 328.5C1065.61 328.367 1067.78 328.3 1069.44 328.3C1071.24 328.3 1073.31 328.367 1075.64 328.5C1078.04 328.633 1080.34 328.9 1082.54 329.3V439C1080.34 439.4 1078.04 439.667 1075.64 439.8C1073.31 439.933 1071.24 440 1069.44 440C1067.78 440 1065.61 439.933 1062.94 439.8C1060.34 439.667 1058.01 439.4 1055.94 439V329.3ZM1111.23 329.8C1113.3 329.333 1115.87 328.967 1118.93 328.7C1122 328.433 1124.4 328.3 1126.13 328.3C1128.07 328.3 1130.57 328.367 1133.63 328.5C1136.77 328.567 1139.37 328.833 1141.43 329.3L1135.73 359L1134.23 359.5C1134.5 364.167 1134.73 369.3 1134.93 374.9C1135.2 380.433 1135.4 385.6 1135.53 390.4C1135.67 395.133 1135.73 398.7 1135.73 401.1V439C1133.53 439.4 1131.4 439.667 1129.33 439.8C1127.33 439.933 1125.43 440 1123.63 440C1122.03 440 1120.07 439.933 1117.73 439.8C1115.47 439.667 1113.3 439.4 1111.23 439V329.8ZM1146.23 383.1C1145.57 381.833 1144.7 380.133 1143.63 378C1142.63 375.8 1141.57 373.5 1140.43 371.1C1139.37 368.7 1138.33 366.433 1137.33 364.3C1136.4 362.1 1135.6 360.333 1134.93 359L1126.93 350.1L1141.43 329.3L1170.63 385.2C1171.3 386.4 1172.17 388.133 1173.23 390.4C1174.37 392.667 1175.5 395.1 1176.63 397.7C1177.83 400.3 1178.97 402.8 1180.03 405.2C1181.17 407.533 1182.07 409.4 1182.73 410.8L1191.63 420L1175.63 439L1146.23 383.1ZM1206.33 329.5V438.6C1204.13 439.067 1201.5 439.4 1198.43 439.6C1195.43 439.867 1193.07 440 1191.33 440C1190.07 440 1188.47 439.967 1186.53 439.9C1184.6 439.833 1182.63 439.733 1180.63 439.6C1178.7 439.533 1177.03 439.333 1175.63 439L1182.13 410.8L1183.63 410.4C1183.37 406.4 1183.03 401.7 1182.63 396.3C1182.23 390.833 1181.9 385.533 1181.63 380.4C1181.37 375.267 1181.23 371.167 1181.23 368.1V343C1181.23 337.133 1182.43 333.2 1184.83 331.2C1187.3 329.2 1191.13 328.2 1196.33 328.2H1205.23L1206.33 329.5ZM1322.6 336C1322.14 339.733 1320.9 343.567 1318.9 347.5C1316.9 351.367 1314.7 354.3 1312.3 356.3C1307.5 353.633 1302.57 351.6 1297.5 350.2C1292.5 348.733 1287.47 348 1282.4 348C1276.34 348 1271.14 349.333 1266.8 352C1262.47 354.6 1259.14 358.667 1256.8 364.2C1254.47 369.733 1253.3 376.767 1253.3 385.3C1253.3 397.567 1255.8 406.7 1260.8 412.7C1265.8 418.7 1273.4 421.7 1283.6 421.7C1289 421.7 1294.04 421.2 1298.7 420.2C1303.44 419.2 1307.34 418.267 1310.4 417.4L1324 435.1C1320.4 436.3 1316 437.433 1310.8 438.5C1305.67 439.5 1300.3 440.3 1294.7 440.9C1289.1 441.5 1283.87 441.8 1279 441.8C1269.4 441.8 1261.2 440.367 1254.4 437.5C1247.67 434.567 1242.2 430.533 1238 425.4C1233.87 420.2 1230.84 414.2 1228.9 407.4C1227.04 400.6 1226.1 393.3 1226.1 385.5C1226.1 374.9 1227.57 365.867 1230.5 358.4C1233.5 350.867 1237.6 344.767 1242.8 340.1C1248 335.433 1253.9 332 1260.5 329.8C1267.17 327.6 1274.17 326.5 1281.5 326.5C1289.1 326.5 1296.5 327.367 1303.7 329.1C1310.9 330.767 1317.2 333.067 1322.6 336ZM1299.3 408.6C1299.3 404.533 1299.47 400.167 1299.8 395.5C1300.2 390.767 1300.87 386.967 1301.8 384.1L1324 391.9V435.1L1299.3 435.5V408.6ZM1278.2 377.4C1282.87 377.2 1287.47 377.1 1292 377.1C1296.6 377.033 1301.27 377 1306 377C1312.94 377 1317.67 378.267 1320.2 380.8C1322.74 383.267 1324 386.867 1324 391.6V398.3C1318.47 398.5 1312.54 398.6 1306.2 398.6C1299.94 398.6 1294.14 398.6 1288.8 398.6C1284.67 398.6 1281.64 397.733 1279.7 396C1277.77 394.2 1276.8 391.333 1276.8 387.4C1276.8 385.867 1276.94 384.1 1277.2 382.1C1277.47 380.1 1277.8 378.533 1278.2 377.4Z" fill="#030712"/>
</g>
<defs>
<linearGradient id="paint0_linear_372_25" x1="384.439" y1="268.691" x2="315.631" y2="299.912" gradientUnits="userSpaceOnUse">
<stop stop-color="#030712"/>
<stop offset="0.09" stop-color="#030712" stop-opacity="0.97"/>
<stop offset="0.22" stop-color="#030712" stop-opacity="0.88"/>
<stop offset="0.38" stop-color="#030712" stop-opacity="0.74"/>
<stop offset="0.57" stop-color="#030712" stop-opacity="0.55"/>
<stop offset="0.78" stop-color="#030712" stop-opacity="0.29"/>
<stop offset="1" stop-color="#030712" stop-opacity="0"/>
</linearGradient>
<linearGradient id="paint1_linear_372_25" x1="186.363" y1="381.12" x2="257.315" y2="330.532" gradientUnits="userSpaceOnUse">
<stop stop-color="#030712"/>
<stop offset="0.09" stop-color="#030712" stop-opacity="0.97"/>
<stop offset="0.2" stop-color="#030712" stop-opacity="0.91"/>
<stop offset="0.34" stop-color="#030712" stop-opacity="0.79"/>
<stop offset="0.49" stop-color="#030712" stop-opacity="0.63"/>
<stop offset="0.65" stop-color="#030712" stop-opacity="0.43"/>
<stop offset="0.82" stop-color="#030712" stop-opacity="0.18"/>
<stop offset="0.93" stop-color="#030712" stop-opacity="0"/>
</linearGradient>
<linearGradient id="paint2_linear_372_25" x1="-2.12099" y1="350.09" x2="457.442" y2="220.978" gradientUnits="userSpaceOnUse">
<stop stop-color="#030712"/>
<stop offset="0.2" stop-color="#030712"/>
<stop offset="1" stop-color="#030712"/>
</linearGradient>
<clipPath id="clip0_372_25">
<rect width="1395" height="582" fill="white"/>
</clipPath>
</defs>
</svg>
